<svg xmlns="http://www.w3.org/2000/svg" width="24" height="24"><g id="_arrow_drop_down_circle" data-name=" arrow_drop_down_circle" transform="translate(-3432 464) rotate(-90)"><rect id="Path" width="24" height="24" transform="translate(440 3432)" fill="rgba(0,0,0,0)"/><path id="Icon" d="M452,3454a10,10,0,1,1,10-10A10.011,10.011,0,0,1,452,3454Zm-2.79-11a.492.492,0,0,0-.462.307.5.5,0,0,0,.112.553l2.79,2.79a.486.486,0,0,0,.346.141.511.511,0,0,0,.364-.151l2.79-2.791a.484.484,0,0,0,.115-.538.492.492,0,0,0-.465-.312Z" fill="#fff"/></g></svg>